/* XPM */
static char *result[] = {
/* columns rows colors chars-per-pixel */
"64 64 65 1 ",
"  c #4D2712",
". c #4E2812",
"X c #522B14",
"o c #532F18",
"O c #5A3117",
"+ c #56321A",
"@ c #5A351D",
"# c #5E391E",
"$ c #603A1F",
"% c #5B3720",
"& c #5E3A21",
"* c #623D23",
"= c #644126",
"- c #664529",
"; c #69462A",
": c #67482B",
"> c #6A4A2D",
", c #6C4E31",
"< c #644F3C",
"1 c #704E31",
"2 c #6E5234",
"3 c #66523F",
"4 c #6C563E",
"5 c #715537",
"6 c #765837",
"7 c #735738",
"8 c #755A3A",
"9 c #795E3E",
"0 c #7A603F",
"q c #675240",
"w c #695642",
"e c #6C5A46",
"r c #6D5C48",
"t c #715C45",
"y c #7A5F40",
"u c #715E48",
"i c #7D6241",
"p c #74624C",
"a c #756551",
"s c #786751",
"d c #7B6A55",
"f c #7E6E5A",
"g c #7F705B",
"h c #7F7262",
"j c #806545",
"k c #836947",
"l c #856B4B",
"z c #886E4E",
"x c #8A714F",
"c c #876E50",
"v c #886F51",
"b c #8C7455",
"n c #81715C",
"m c #907756",
"M c #907857",
"N c #947C5D",
"B c #847562",
"V c #867966",
"C c #897B67",
"Z c #8C7F6C",
"A c #977F61",
"S c #8E806C",
"D c #9A8365",
"F c #938574",
"G c None",
/* pixels */
"GGGGGGGGGGGGGGGGGGGGGGGGGGGGGGGGGGGGGGGGGGGGGGGGGGGGGGGGGGGGGGGG",
"GGGGGGGGGGGGGGGGGGGGGGGGGGGGGGGGGGGGGGGGGGGGGGGGGGGGGGGGGGGGGGGG",
"GGGGGGGGGGGGGGGGGGGGGGGGGGGGGGGGGGGGGGGGGGGGGGGGGGGGGGGGGGGGGGGG",
"GGGGGGGGGGGGGGGGGGGGGGGGGGGGGGGGGGGGGGGGGGGGGGGGGGGGGGGGGGGGGGGG",
"GGGGGGGGGGGGGGGGGGGGGGGGGGGGGGGGGGGGGGGGGGGGGGGGGGGGGGGGGGGGGGGG",
"GGGGGGGGGGGGGGGGGGGGGGGGGGGGGGGGGGGGGGGGGGGGGGGGGGGGGGGGGGGGGGGG",
"GGGGGGGGGGGGGGGGGGGGGGGGGGGGGGGGGGGGGGGGGGGGGGGGGGGGGGGGGGGGGGGG",
"GGGGGGGGGGGGGGGGGGGGGGGGGG>1111*,1511GGGGGGGGGGGGGGGGGGGGGGGGGGG",
"GGGGGGGGGGGGGGGGGGGGGG;;>$xxzzlOzzllk$==$GGGGGGGGGGGGGGGGGGGGGGG",
"GGGGGGGGGGGGGGGGGGGG1;mmm$xxzllOllllkO99i$;GGGGGGGGGGGGGGGGGGGGG",
"GGGGGGGGGGGGGGGGGG*$mmmmN$DDDNM$NNNNm$60986@&GGGGGGGGGGGGGGGGGGG",
"GGGGGGGGGGGGGGGGG;l$zDDDD$6966j$0999i$mxmm7*5&GGGGGGGGGGGGGGGGGG",
"GGGGGGGGGGGGGGGG;zz$N6xjj$ji68j$99iii;;;jyb*51&GGGGGGGGGGGGGGGGG",
"GGGGGGGGGGGGGGG;kzN*66zjj$iij8j;09ii0;;kyyy=v55@GGGGGGGGGGGGGGGG",
"GGGGGGGGGGGGGGG;kN9*6zjjj=iij99;9iii0;kiyyy-yz5%GGGGGGGGGGGGGGGG",
"GGGGGGGGGGGGGG=ym96*6zjjj=iiy9j;9iii0;iiyyy>yyl1@GGGGGGGGGGGGGGG",
"GGGGGGGGGGGGGG=b899=kjjij>jj9yj;iiiij>ii9ii>000l@GGGGGGGGGGGGGGG",
"GGGGGGGGGGGGG;yb798>jjjjj;999jj;iiiii>9iiyi,000z,@GGGGGGGGGGGGGG",
"GGGGGGGGGGGGG=v8989;ijjjj>yy99j-jiiii>i9i0i,0009b+GGGGGGGGGGGGGG",
"GGGGGGGGGGGGG=c6788>jijjj>yyyjj-kijii>9iiy020909b+GGGGGGGGGGGGGG",
"GGGGGGGGGGGGG@866681ijj*j,yyyyj>kiiij>0*0ii,00999.GGGGGGGGGGGGGG",
"GGGGGGGGGGGGG@@@@*$****F*,yyyyj:kijii>=F&*&&##@@@.GGGGGGGGGGGGGG",
"GGGGGGGGGGGGG+cdnnnnBBBcZ*yyyyj;kiii0*FsBBggdgnddXGGGGGGGGGGGGGG",
"GGGGGGGGGGGGG+ttpppddddfcZ*y99j>kiii=Fdsspppppp4eXGGGGGGGGGGGGGG",
"GGGGGGGGGGGGG+ttpppssdddco9yy8i:kjjiiOkksspppupetXGGGGGGGGGGGGGG",
"GGGGGGGGGGGGGoXXXOXOooOdX,y99yi:kiiii>OdXXXXXXXXXXGGGGGGGGGGGGGG",
"GGGGGGGGGGGGG+===-;$>>>o,19yyyi:kiii0>;X::::::::-XGGGGGGGGGGGGGG",
"GGGGGGGGGGGGGo86777&yyy:,,9yyyi:kjii0>0>yii287775XGGGGGGGGGGGGGG",
"GGGGGGGGGGGGGo76786=yyyy2,9y8yi:xii00>0009i,77777XGGGGGGGGGGGGGG",
"GGGGGGGGGGGGGo75776>yyyy>199y8i-z0ii0,i0999277777XGGGGGGGGGGGGGG",
"GGGGGGGGGGGGGo65777>i989>,9999i-z0i0i>i0999277777XGGGGGGGGGGGGGG",
"GGGGGGGGGGGGGo56677>i8999,898ti-z00i0,i0999272257XGGGGGGGGGGGGGG",
"GGGGGGGGGGGGGX57777>i9988,88800-l0000,00999,27727XGGGGGGGGGGGGGG",
"GGGGGGGGGGGGGX57777:i8788,888@&#&#000,08899>22724.GGGGGGGGGGGGGG",
"GGGGGGGGGGGGGX57577:i7878,88@SSSSS#00,00999,77275XGGGGGGGGGGGGGG",
"GGGGGGGGGGGGGX57574,i7777,80#ppppp#002i8988:22222XGGGGGGGGGGGGGG",
"GGGGGGGGGGGGGX55757>i2777,78@pp.pp@70207888-22222.GGGGGGGGGGGGGG",
"GGGGGGGGGGGGGX55555,i7577,88XutXurX97,08889-222,2.GGGGGGGGGGGGGG",
"GGGGGGGGGGGGGX55557>i2577>76o44444.67,0888t-2,222.GGGGGGGGGGGGGG",
"GGGGGGGGGGGGG.55577>i55&5277:...X.>77>0*886-22222.GGGGGGGGGGGGGG",
"GGGGGGGGGGGGG.@++@@&#&&S@,787::+>>777,*S#&%##@+@@.GGGGGGGGGGGGGG",
"GGGGGGGGGGGGG.ssgddBBnBsS@87877=67778*Saggdddsdss.GGGGGGGGGGGGGG",
"GGGGGGGGGGGGG.e4uuupspsssS#5777=8776&Saapprrrur4w.GGGGGGGGGGGGGG",
"GGGGGGGGGGGGG.44uuupppsss 85747=77785.papprutrrw4.GGGGGGGGGGGGGG",
"GGGGGGGGGGGGG.........Xs =55478&77575= u.X  ..  ..GGGGGGGGGGGGGG",
"GGGGGGGGGGGGG.**==:+:>>.:=75557=72552=: ---=:====.GGGGGGGGGGGGGG",
"GGGGGGGGGGGGG.,2222@242>2=55557&75222=4:888*,,,:, GGGGGGGGGGGGGG",
"GGGGGGGGGGGGG.22,22=27222*55552@22525&08888=>,,,,.GGGGGGGGGGGGGG",
"GGGGGGGGGGGGG.22222&45524&55332+22232&7t974&,,,,, GGGGGGGGGGGGGG",
"GGGGGGGGGGGGG.o@@&%%%@%@@+++o ..o++o@@%%@@%+ooX   GGGGGGGGGGGGGG",
"GGGGGGGGGGGGG ppaaadassddaddhhh hhhddddaaaaaaaaaa GGGGGGGGGGGGGG",
"GGGGGGGGGGGGG BVVVVhVVVVSSSSZFF FFSZZZVhVVBVVBVBV GGGGGGGGGGGGGG",
"GGGGGGGGGGGGG.q333qqqqewrrrrwra arrrrwrrwwww<3<<< GGGGGGGGGGGGGG",
"GGGGGGGGGGGGG.q33333qqeeqrwrrra arrrrrrwwwww<<<<< GGGGGGGGGGGGGG",
"GGGGGGGGGGGGG.3<<3wwwwewrrwwrra arrrrrrwwwwwqw<<< GGGGGGGGGGGGGG",
"GGGGGGGGGGGGG.<<<wwwwwwerwrrrra arrrrrrrrwww4ww<< GGGGGGGGGGGGGG",
"GGGGGGGGGGGGG  .................  ......          GGGGGGGGGGGGGG",
"GGGGGGGGGGGGGGGGGGGGGGGGGGGGGGGGGGGGGGGGGGGGGGGGGGGGGGGGGGGGGGGG",
"GGGGGGGGGGGGGGGGGGGGGGGGGGGGGGGGGGGGGGGGGGGGGGGGGGGGGGGGGGGGGGGG",
"GGGGGGGGGGGGGGGGGGGGGGGGGGGGGGGGGGGGGGGGGGGGGGGGGGGGGGGGGGGGGGGG",
"GGGGGGGGGGGGGGGGGGGGGGGGGGGGGGGGGGGGGGGGGGGGGGGGGGGGGGGGGGGGGGGG",
"GGGGGGGGGGGGGGGGGGGGGGGGGGGGGGGGGGGGGGGGGGGGGGGGGGGGGGGGGGGGGGGG",
"GGGGGGGGGGGGGGGGGGGGGGGGGGGGGGGGGGGGGGGGGGGGGGGGGGGGGGGGGGGGGGGG",
"GGGGGGGGGGGGGGGGGGGGGGGGGGGGGGGGGGGGGGGGGGGGGGGGGGGGGGGGGGGGGGGG"
};
