/* XPM */
static char *result[] = {
/* columns rows colors chars-per-pixel */
"64 64 81 1 ",
"  c black",
". c #010000",
"X c #000200",
"o c #020301",
"O c #040202",
"+ c #040303",
"@ c #000704",
"# c #060505",
"$ c #080000",
"% c #020B03",
"& c #010805",
"* c #010A06",
"= c #010D09",
"- c gray3",
"; c #0B0A0A",
": c #0E0C0C",
"> c #0E0D0D",
", c #0F0E0E",
"< c #031006",
"1 c #001409",
"2 c #061D0A",
"3 c #061F0B",
"4 c #0C190B",
"5 c #111010",
"6 c #141111",
"7 c #320605",
"8 c #06210C",
"9 c #07210C",
"0 c #002014",
"q c #002619",
"w c #003623",
"e c #242222",
"r c #343030",
"t c #470A09",
"y c #00482F",
"u c #004F32",
"i c #004F33",
"p c #005E3D",
"a c #00744B",
"s c #00764D",
"d c #00784E",
"f c #454141",
"g c #4C4848",
"h c #4F4848",
"j c #514C4C",
"k c #524D4D",
"l c #686161",
"z c #756C6C",
"x c #797171",
"c c #807878",
"v c #847C7C",
"b c #998F8F",
"n c #A69C9C",
"m c #B2A7A7",
"M c #B8ADAD",
"N c #BAADAE",
"B c #BAB3AF",
"V c #BBB0B0",
"C c #BBB5B1",
"Z c #C7BABA",
"A c #C7BBBB",
"S c #BEC4BC",
"D c #CCC0C0",
"F c #CDC1C1",
"G c #D1C5C5",
"H c #DCCAC2",
"J c #DBCFCF",
"K c #DCCFCF",
"L c #DDD1D1",
"P c #DED1D1",
"I c #E0CDC4",
"U c #E1CEC5",
"Y c #E1CFC6",
"T c #E3D1CB",
"R c #E0D2D2",
"E c #E1D3D3",
"W c #E3D6D6",
"Q c #E4D6D6",
"! c #E5D7D7",
"~ c #E6D8D8",
"^ c None",
/* pixels */
"^^^^^^^^^^^^^^^^^^^^^^^^^^^^^^^^^^^^^^^^^^^^^^^^^^^^^^^^^^^^^^^^",
"^^^^^^^^^^^^^^^^^^^^^^^^^^^^^^^^^^^^^^^^^^^^^^^^^^^^^^^^^^^^^^^^",
"^^^^^^^^^^^^^^^^^^^^^^^^^^^^^^^^^^^^^^^^^^^^^^^^^^^^^^^^^^^^^^^^",
"^^^^^^^^^^^^^^^^^^^^^^^^^^^^^^^^^^^^^^^^^^^^^^^^^^^^^^^^^^^^^^^^",
"^^^^^^^^^^^^^^^^^^^^^^^^^^^^^^^^^^^^^^^^^^^^^^^^^^^^^^^^^^^^^^^^",
"^^^^^^^^^^^^^^^^^^^^^^^^^^^^^^^^^^^^^^^^^^^^^^^^^^^^^^^^^^^^^^^^",
"^^^^^^^^^^^^^^^^^^^^^^^^^^^^^^^^^^^^^^^^^^^^^^^^^^^^^^^^^^^^^^^^",
"^^^^^^^^^^^^^^^^^^^^^^^^^^^^^^^^^^^^^^^^^^^^^^^^^^^^^^^^^^^^^^^^",
"^^^^^^^^^^^^^^^^^^^^^^^^^^^^^^^^^^^^^^^^^^^^^^^^^^^^^^^^^^^^^^^^",
"^^^^^^^^^^^^^^^^^^^^^^^^^^^^^^^^^^^^^^^^^^^^^^^^^^^^^^^^^^^^^^^^",
"^^^^^^^^^^^^^^^^^^^^^^^^^^^^^^^^^^^^^^^^^^^^^^^^^^^^^^^^^^^^^^^^",
"^^^^^^^^^^^^^^^^^^^^^^^^^^^^^^^^^^^^^^^^^^^^^^^^^^^^^^^^^^^^^^^^",
"^^^^^^^^^^^^^^^^^^^^^^^^^^^^^^^^^^^^^^^^^^^^^^^^^^^^^^^^^^^^^^^^",
"^^^^^^^^^^^^^^^^^^^^^^^^^^^^^^^^^^^^^^^^^^^^^^^^^^^^^^^^^^^^^^^^",
"^^^^^^^^^^^^^^^^^^^^^^^^^^^^^^^^^^^^^^^^^^^^^^^^^^^^^^^^^^^^^^^^",
"^^^^^^^^^^^^^^^^^^^^^^^^^^^^^^^^^^^^^^:~L ^^ ^^^^^^^^^^^^^^^^^^^",
"^^^^^^^^^^^^^^^^^^^^^^^^^^^^^^^^^^^^ ~~~K~^ ^^^^^^^^^^^^^^^^^^^^",
"^^^^^^^^^^^^^^^^^^^^^^^^^^^^^^^^^^^~#~~~~~ ^^^^^^^^^^^^^^^^^^^^^",
"^^^^^^^^^^^^^^^^^ ^^^^^^^^^^^^^^^^~~~~~~~M^^^^^^^^^^^^^^^^^^^^^^",
"^^^^^^^^^^^^^^^^^^ ^^^^^^^^^^^^^^~~~~~~cM~^^^^^^^^^^^^^^^^^^^^^^",
"^^^^^^^^^^^^^^^^^^^ ^^^^^^^^^^^^~~G~~MM,~~^^^^^^^^^^^^^^^^^^^^^^",
"^^^^^^^^^^^^^^^^^^^^ ^^^^^^^^^^ ~~~QMM~~~^^^^^^^^^^^^^^^^^^^^^^^",
"^^^^^^^^^^^^^^^^^^^^^ ^^^^^^^^^~~~;M~~~~~^^^^^^^^^^^^^^^^^^^^^^^",
"^^^^^^^^^^^^^^^^^^^^^  ^^^^^^^~~+~j~~~~~ ^^^^^^^^^^^^^^^^^^^^^^^",
"^^^^^^^^^^^^^^^^^^^^^^^  ^^^^~R~~M~~~~~~^^^^^^^^^^^^^^^^^^^^^^^^",
"^^^^^^^^^^^^^^^^^^^^^^^^  ^^O~~~Mk~v~~~5^^^^^^^^^^^^^^^^^^^^^^^^",
"^^^^^^^^^^^^^^^^^^^^^^^^^^ ^~~~~MV~~~~~^^^^^^^^^^^^^^^^^^^^^^^^^",
"^^^^^^^^^^^^^^^^^^^^^^^^^^ Z~-~FM~~~~~^^^^^^^^^^^^^^^^^^^^^^^^^^",
"^^^^^^^^^^^^^^^^^^^^    ^^~M~UUMM~~~~ ^^^^^^^^^^^^^^^^^^^^^^^^^^",
"^^^^^^^^^^^^^^^^^^  ^^^ ^bEMUUUHCCCC%9^^^^^^^^^^^^^^^^^^^^^^^^^^",
"^^^^^^^^^^^^^^^  ^^  ^^@..iduUUUCCC8.888^^^^^^^^^^^^^^^^^^^^^^^^",
"^^^^^^^^^^^^^ ^^^^  t d.wddddaIUCC88.88o8^^^^^^^^^^^^^^^^^^^^^^^",
"^^^^^^^^^^^^^^^^^^ tt q......4dUB288.88.8^^^^^^^^^^^^^^^^^^^^^^^",
"^^^^^^^^^^^^^^^^     y....d0p4d.<838.83.8^^^^^^^^^^^^^^^^^^^^^^^",
"^^^^^^^^^^^^^^^^^^    *d.....4dUNC.888..^^^^^^^^^^^^^^^^^^^^^^^^",
"^^^^^^^^^^^^^^^^^     .....&s4UUNCNCX88^^^^^^^^^^^^^^^^^^^^^^^^^",
"^^^^^^^^^^^^^^^^^^  t7d=....d1UUCCNCCC^^^^^^^^^^^^^^^^^^^^^^^^^^",
"^^^^^^^^^^^^^^^^^^  $t^^d.SUUUUUMCN~~~~^^^^^^^^^^^^^^^^^^^^^^^^^",
"^^^^^^^^^^^^^^^^^^^   ^^ ^^~e~TYMM~~~~~~^^^^^^^^^^^^^^^^^^^^^^^^",
"^^^^^^^^^^^^^^      ^^^  ^^^ML~~lMM~~~~~~^^^^^^^^^^^^^^^^^^^^^^^",
"^^^^^^^^^^^^^^^^^^^^^   ^^^  ~D~~PM~~~~~~~^^^^^^^^^^^^^^^^^^^^^^",
"^^^^^^^^^^^^^^^^^^^^^^^^^^^ ^^~~~~mM~~>~~~~^^^^^^^^^^^^^^^^^^^^^",
"^^^^^^^^^^^^^^^^^^^^^^^^^^  ^^^n~~~~MM~~~~~h^^^^^^^^^^^^^^^^^^^^",
"^^^^^^^^^^^^^^^^^^^^^^^^^  ^^^^^ ~~~~+MMMg~~^^^^^^^^^^^^^^^^^^^^",
"^^^^^^^^^^^^^^^^^^^^^^^^  ^^^^^^^^~~~~~~MMM~~^^^^^^^^^^^^^^^^^^^",
"^^^^^^^^^^^^^^^^^^^^^^^^ ^^^^^^^^^^~~A~~~~xM~^^^^^^^^^^^^^^^^^^^",
"^^^^^^^^^^^^^^^^^^^^^^^ ^^^^^^^^^^^^W~r~~f~~~ ^^^^^^^^^^^^^^^^^^",
"^^^^^^^^^^^^^^^^^^^^^^ ^^^^^^^^^^^^^^^~6~~Jz~!  ^^^^^^^^^^^^^^^^",
"^^^^^^^^^^^^^^^^^^^^^^ ^^^^^^^^^^^^^^^^^~~~~~^^^ ^^^^^^^^^^^^^^^",
"^^^^^^^^^^^^^^^^^^^^^ ^^^^^^^^^^^^^^^^^^^^^^^^^^^^^^^^^^^^^^^^^^",
"^^^^^^^^^^^^^^^^^^^^^^^^^^^^^^^^^^^^^^^^^^^^^^^^^^^^^^^^^^^^^^^^",
"^^^^^^^^^^^^^^^^^^^^^^^^^^^^^^^^^^^^^^^^^^^^^^^^^^^^^^^^^^^^^^^^",
"^^^^^^^^^^^^^^^^^^^^^^^^^^^^^^^^^^^^^^^^^^^^^^^^^^^^^^^^^^^^^^^^",
"^^^^^^^^^^^^^^^^^^^^^^^^^^^^^^^^^^^^^^^^^^^^^^^^^^^^^^^^^^^^^^^^",
"^^^^^^^^^^^^^^^^^^^^^^^^^^^^^^^^^^^^^^^^^^^^^^^^^^^^^^^^^^^^^^^^",
"^^^^^^^^^^^^^^^^^^^^^^^^^^^^^^^^^^^^^^^^^^^^^^^^^^^^^^^^^^^^^^^^",
"^^^^^^^^^^^^^^^^^^^^^^^^^^^^^^^^^^^^^^^^^^^^^^^^^^^^^^^^^^^^^^^^",
"^^^^^^^^^^^^^^^^^^^^^^^^^^^^^^^^^^^^^^^^^^^^^^^^^^^^^^^^^^^^^^^^",
"^^^^^^^^^^^^^^^^^^^^^^^^^^^^^^^^^^^^^^^^^^^^^^^^^^^^^^^^^^^^^^^^",
"^^^^^^^^^^^^^^^^^^^^^^^^^^^^^^^^^^^^^^^^^^^^^^^^^^^^^^^^^^^^^^^^",
"^^^^^^^^^^^^^^^^^^^^^^^^^^^^^^^^^^^^^^^^^^^^^^^^^^^^^^^^^^^^^^^^",
"^^^^^^^^^^^^^^^^^^^^^^^^^^^^^^^^^^^^^^^^^^^^^^^^^^^^^^^^^^^^^^^^",
"^^^^^^^^^^^^^^^^^^^^^^^^^^^^^^^^^^^^^^^^^^^^^^^^^^^^^^^^^^^^^^^^",
"^^^^^^^^^^^^^^^^^^^^^^^^^^^^^^^^^^^^^^^^^^^^^^^^^^^^^^^^^^^^^^^^"
};
