/* XPM */
static char *result[] = {
/* columns rows colors chars-per-pixel */
"64 64 59 1 ",
"  c #4F2913",
". c #522B14",
"X c #542F18",
"o c #573017",
"O c #553119",
"+ c #5A341B",
"@ c #5D381E",
"# c #60391D",
"$ c #5D3A21",
"% c #613E23",
"& c #5A4432",
"* c #5E4834",
"= c #634126",
"- c #684326",
"; c #644529",
": c #69462A",
"> c #664A2D",
", c #6B4A2D",
"< c #6B4E31",
"1 c #634E3C",
"2 c #714F33",
"3 c #6C5033",
"4 c #64513E",
"5 c #725334",
"6 c #725638",
"7 c #765A3B",
"8 c #795C3D",
"9 c #675340",
"0 c #695542",
"q c #6B5846",
"w c #6E5D4A",
"e c #705C47",
"r c #7B5F40",
"t c #715E49",
"y c #7D6343",
"u c #74614D",
"i c #766653",
"p c #786651",
"a c #7D6852",
"s c #7C6D5B",
"d c #7E705F",
"f c #806646",
"g c #816749",
"h c #846A4B",
"j c #886F4F",
"k c #886F50",
"l c #8C7354",
"z c #81705D",
"x c #8F7758",
"c c #8F7858",
"v c #907755",
"b c #917856",
"n c #937B5B",
"m c #857562",
"M c #8B7B66",
"N c #978164",
"B c #9D8664",
"V c #9E8768",
"C c None",
/* pixels */
"CCCCCCCCCCCCCCCCCCCCCCCCCCCCCCCCCCCCCCCCCCCCCCCCCCCCCCCCCCCCCCCC",
"CCCCCCCCCCCCCCCCCCCCCCCCCCCCCCCCCCCCCCCCCCCCCCCCCCCCCCCCCCCCCCCC",
"CCCCCCCCCCCCCCCCCCCCCCCCCCCCCCCCCCCCCCCCCCCCCCCCCCCCCCCCCCCCCCCC",
"CCCCCCCCCCCCCCCCCCCCCCCCCCCCCCCCCCCCCCCCCCCCCCCCCCCCCCCCCCCCCCCC",
"CCCCCCCCCCCCCCCCCCCCCCCCCCCCCCCCCCCCCCCCCCCCCCCCCCCCCCCCCCCCCCCC",
"CCCCCCCCCCCCCCCCCCCCCCCCCCCCCCCCCCCCCCCCCCCCCCCCCCCCCCCCCCCCCCCC",
"CCCCCCCCCCCCCCCCC,>,+CCCCCCCCCCCCCCCCCCCCC2222CCCCCCCCCCCCCCCCCC",
"CCCCCCCCCCCCCCCC,lyy+CCCCCCCCCCCCCCCCCCCCC,vhj2CCCCCCCCCCCCCCCCC",
"CCCCCCCCCCCCCCCC>xyf+CCCCCCCCCCCCCCCCCCCCC,vhj2CCCCCCCCCCCCCCCCC",
"CCCCCCCCCCCCCCC,nhh3+CCCCCCCCCCCCCCCCCCCCC,yvll2CCCCCCCCCCCCCCCC",
"CCCCCCCCCCCCCCC,xhj3+CCCCCCCCCCCCCCCCCCCCC,rbll2CCCCCCCCCCCCCCCC",
"CCCCCCCCCCCCCCC,njh3oCCCCCCCCCCCCCCCCCCCCC:yBxv2CCCCCCCCCCCCCCCC",
"CCCCCCCCCCCCCC,nlkl3+CCCCCCCCCCCCCCCCCCCCC:fBvnx2CCCCCCCCCCCCCCC",
"CCCCCCCCCCCCCC>ckl<<XCCCCCCCCCCCCCCCCCCCCC-ffBnn,CCCCCCCCCCCCCCC",
"CCCCCCCCCCCCCC:nxx<3oCCCCCCCCCCCCCCCCCCCCC,frVnn,CCCCCCCCCCCCCCC",
"CCCCCCCCCCCCCC,Nxv33oCCCCCCCCCCCCCCCCCCCCC<ffnnn:CCCCCCCCCCCCCCC",
"CCCCCCCCCCCCCC,Mnv<3XCCCCCCCCCCCCCCCCCCCCC%fgVnn:CCCCCCCCCCCCCCC",
"CCCCCCCCCCCCC>nxll<<XCCCCCCCCCCCCCCCCCCCCC2ffVnnn-CCCCCCCCCCCCCC",
"CCCCCCCCCCCCC:Nln<<<XCCCCCCCCCCCCCCCCCCCCC:fffVnn-CCCCCCCCCCCCCC",
"CCCCCCCCCCCCC=Nxl<<<XCCCCCCCCCCCCCCCCCCCCC%fffVnn%CCCCCCCCCCCCCC",
"CCCCCCCCCCCCC=nkl<<,.CCCCCCCCCCCCCCCCCCCCC2fffBxv%CCCCCCCCCCCCCC",
"CCCCCCCCCCCCC:Nlk<X<XCCCCCCCCCCCCCCCCCCCCC:f,fBvv%CCCCCCCCCCCCCC",
"CCCCCCCCCCCCC=nkjX0XXCCCCCCCCCCCCCCCCCCCCC%2m,Blk#CCCCCCCCCCCCCC",
"CCCCCCCCCCCCC=%#+.>..CCCCCCCCCCCCCCCCCCCCC%%a,%-%#CCCCCCCCCCCCCC",
"CCCCCCCCCCCCC=mmz0.<XCCCCCCCCCCCCCCCCCCCCC%8#mMMM@CCCCCCCCCCCCCC",
"CCCCCCCCCCCCC%tpu>.,.CCCCCCCCCCCCCCCCCCCCC#f#aaaa@CCCCCCCCCCCCCC",
"CCCCCCCCCCCCC%ttu.<>.CCCCCCCCCCCCCCCCCCCCC#r8#aga+CCCCCCCCCCCCCC",
"CCCCCCCCCCCCC%oXX><>.CCCCCCCCCCCCCCCCCCCCC#ff7#+++CCCCCCCCCCCCCC",
"CCCCCCCCCCCCC%<,,>>>.CCCCCCCCCCCCCCCCCCCCC#fffh77+CCCCCCCCCCCCCC",
"CCCCCCCCCCCCC$hyy>>>oCCCCCCCCCCCCCCCCCCCCC#fr8vhg+CCCCCCCCCCCCCC",
"CCCCCCCCCCCCC$hry>>.9 CCCCCCCCCCCCCCCCCCC#m#rrvgf+CCCCCCCCCCCCCC",
"CCCCCCCCCCCCC$hyy>> &.CCCCCCCCCCCCCCCCCCC#a#rrlgf+CCCCCCCCCCCCCC",
"CCCCCCCCCCCCC$g77;;.& CCCCCCCCCCCCCCCCCCC+p#88vrroCCCCCCCCCCCCCC",
"CCCCCCCCCCCCC$h87>; &.CCCCCCCCCCCCCCCCCCC#u+88jfroCCCCCCCCCCCCCC",
"CCCCCCCCCCCCC$a77>; &.CCCCCCCCCCCCCCCCCCC+u+88jr8oCCCCCCCCCCCCCC",
"CCCCCCCCCCCCC$y77;;=OCCCCCCCCCCCCCCCCCCCCC+777jr8XCCCCCCCCCCCCCC",
"CCCCCCCCCCCCC$y77=== CCCCCCCCCCCCCCCCCCCCC+767jyrXCCCCCCCCCCCCCC",
"CCCCCCCCCCCCC$yr7;==.CCCCCCCCCCCCCCCCCCCCCX553h88.CCCCCCCCCCCCCC",
"CCCCCCCCCCCCC$y66=== CCCCCCCCCCCCCCCCCCCCCX555h77.CCCCCCCCCCCCCC",
"CCCCCCCCCCCCC$y66$=&.CCCCCCCCCCCCCCCCCCCCC.5$5h76.CCCCCCCCCCCCCC",
"CCCCCCCCCCCCC+y66&.%.CCCCCCCCCCCCCCCCCCCCCo#s@g66.CCCCCCCCCCCCCC",
"CCCCCCCCCCCCCXy65 4. CCCCCCCCCCCCCCCCCCCCC.%qOh66.CCCCCCCCCCCCCC",
"CCCCCCCCCCCCC +++.*..CCCCCCCCCCCCCCCCCCCCC.:+s . .CCCCCCCCCCCCCC",
"CCCCCCCCCCCCC.zzs4 $ CCCCCCCCCCCCCCCCCCCCC.,.qzzd CCCCCCCCCCCCCC",
"CCCCCCCCCCCCC qut*  4 CCCCCCCCCCCCCCCCCCC.s.%+ett.CCCCCCCCCCCCCC",
"CCCCCCCCCCCCC.eww @ & CCCCCCCCCCCCCCCCCCC.1 ,+eet CCCCCCCCCCCCCC",
"CCCCCCCCCCCCC.  .@@ & CCCCCCCCCCCCCCCCCCC.1.,-    CCCCCCCCCCCCCC",
"CCCCCCCCCCCCC.,:>@ 0& CCCCCCCCCCCCCCCCCCC.4u ,5,, CCCCCCCCCCCCCC",
"CCCCCCCCCCCCC y36$ && CCCCCCCCCCCCCCCCCCC 90 ,y66 CCCCCCCCCCCCCC",
"CCCCCCCCCCCCC y66+ & CCCCCCCCCCCCCCCCCCCCC q <y66 CCCCCCCCCCCCCC",
"CCCCCCCCCCCCC y66 9& CCCCCCCCCCCCCCCCCCCCC qs y66 CCCCCCCCCCCCCC",
"CCCCCCCCCCCCC     && CCCCCCCCCCCCCCCCCCCCC qw     CCCCCCCCCCCCCC",
"CCCCCCCCCCCCC iii9& CCCCCCCCCCCCCCCCCCCCCCC wmtiu CCCCCCCCCCCCCC",
"CCCCCCCCCCCCC iq0&& CCCCCCCCCCCCCCCCCCCCCCC wd000 CCCCCCCCCCCCCC",
"CCCCCCCCCCCCC uqq&& CCCCCCCCCCCCCCCCCCCCCCC wd909 CCCCCCCCCCCCCC",
"CCCCCCCCCCCCC iqq& CCCCCCCCCCCCCCCCCCCCCCCCC.s000 CCCCCCCCCCCCCC",
"CCCCCCCCCCCCC uqq& CCCCCCCCCCCCCCCCCCCCCCCCC s900 CCCCCCCCCCCCCC",
"CCCCCCCCCCCCC uqq& CCCCCCCCCCCCCCCCCCCCCCCCC s000 CCCCCCCCCCCCCC",
"CCCCCCCCCCCCC     CCCCCCCCCCCCCCCCCCCCCCCCCCC     CCCCCCCCCCCCCC",
"CCCCCCCCCCCCCCCCCCCCCCCCCCCCCCCCCCCCCCCCCCCCCCCCCCCCCCCCCCCCCCCC",
"CCCCCCCCCCCCCCCCCCCCCCCCCCCCCCCCCCCCCCCCCCCCCCCCCCCCCCCCCCCCCCCC",
"CCCCCCCCCCCCCCCCCCCCCCCCCCCCCCCCCCCCCCCCCCCCCCCCCCCCCCCCCCCCCCCC",
"CCCCCCCCCCCCCCCCCCCCCCCCCCCCCCCCCCCCCCCCCCCCCCCCCCCCCCCCCCCCCCCC",
"CCCCCCCCCCCCCCCCCCCCCCCCCCCCCCCCCCCCCCCCCCCCCCCCCCCCCCCCCCCCCCCC"
};
