/* XPM */
static char *result[] = {
/* columns rows colors chars-per-pixel */
"64 64 40 1 ",
"  c #573B17",
". c #593C17",
"X c #5A3F18",
"o c #5B4017",
"O c #5C4418",
"+ c #5F4919",
"@ c #4E5313",
"# c #515514",
"$ c #5E5714",
"% c #545815",
"& c #5F5914",
"* c #5B5E18",
"= c #614B1A",
"- c #615A15",
"; c #605618",
": c #625819",
"> c #5D6117",
", c #5E6118",
"< c #636618",
"1 c #6D631A",
"2 c #66691A",
"3 c #6A6D1A",
"4 c #75691A",
"5 c #7B6F1C",
"6 c #6E711B",
"7 c #72741D",
"8 c #7C711D",
"9 c #77781F",
"0 c #78791F",
"q c #777820",
"w c #7C7C22",
"e c #7F7E28",
"r c #807F23",
"t c #807E28",
"y c #818023",
"u c #86822E",
"i c #88832F",
"p c #878331",
"a c #898531",
"s c None",
/* pixels */
"ssssssssssssssssssssssssssssssssssssssssssssssssssssssssssssssss",
"ssssssssssssssssssssssssssssssssssssssssssssssssssssssssssssssss",
"ssssssssssssssssssssssssssssssssssssssssssssssssssssssssssssssss",
"ssssssssssssssssssssssssssssssssssssssssssssssssssssssssssssssss",
"ssssssssssssssssssssssssssssssssssssssssssssssssssssssssssssssss",
"ssssssssssssssssssssssssssssssssssssssssssssssssssssssssssssssss",
"ssssssssssssssssssssssssssssssssssssssssssssssssssssssssssssssss",
"ssssssssssssssssssssssssssssssssssssssssssssssssssssssssssssssss",
"ssssssssssssssssssssssssssssssssssssssssssssssssssssssssssssssss",
"ssssssssssssssssssssssssssssssssssssssssssssssssssssssssssssssss",
"ssssssssssssssssssssssssssssss===sssssssssssssssssssssssssssssss",
"sssssssssssssssssssssssssssss=ppp=ssssssssssssssssssssssssssssss",
"ssssssssssssssssssssssssss====pppp=sssssssssssssssssssssssssssss",
"sssssssssssssssssssssssss=aappappp=s===sssssssssssssssssssssssss",
"sssssssssssssssssssss===s=appaqaaaa=app=ssssssssssssssssssssssss",
"ssssssssssssssssssss=uuu=apaaa99wwwaaap=ssssssssssssssssssssssss",
"ssssssssssssssssssss=uuuuiiai999y0raiiu=s====sssssssssssssssssss",
"ssssssssssssssssssss=iuuu6aaa9wwyrwiai33=pppp=ssssssssssssssssss",
"sssssssssssssssssssss=ya347iaaaarrrww322eppppp=sssssssssssssssss",
"ssssssssssssssssss===ww05577aaaaa0aaai33wwpppp=sssssssssssssssss",
"sssssssssssssssss=q9wqw8riar7aaaayaaaa3323wwwww===+sssssssssssss",
"sssssssssssssssss=99998paaayyyaiay1aa1333iaiwwwyeee=ssssssssssss",
"sssssssssssssssss=99wwwaaaay88yyrr111:1aiaaaww3etee+ssssssssssss",
"ssssssssssssssss=3699aaaaaa888yyr77w911aapawww3etee+ssssssssssss",
"sssssssssssss===7666aaaayaaa87777670wq1aaawwww36tt+sssssssssssss",
"ssssssssssss=wwww66aaaayyaaai76700000037aaap663633+sssssssssssss",
"sssssssssss+wwwww62iaayw0yaaiy670w0rrr76aiaap633633++sssssssssss",
"sssssssssss=wwww2233wyyy9yyiyy7000yrrrw66aaapw6333979+ssssssssss",
"sssssssssss=www223262wyy76yyyy2209rriaaywywwww33,7q77+ssssssssss",
"ssssssssssss=<222iiawyw767000022277raaaawwwwww3>,9q79+ssssssssss",
"sssssssssssss=22iiiiywyy7600002227767aaapaw36>>,*q79+sssssssssss",
"ssssssssssss+77piiiwyyyyy220023332rywraiapa6333,&&777+ssssssssss",
"sssssssssss+6qqtiiy44yrrr723323666rraiaapppw6362*&&&;w++ssssssss",
"sssssssssss=66qqy0y444ry673223677ryraaaa6wwwe336**&3qw0q+sssssss",
"ssssssssssss=7q<2uuuu4446663337yryw1aap66wwww333**33wwqw+sssssss",
"sssssssssssss=222uuuu466672226aaiiy111636;wew23**3332qwqosssssss",
"ssssssssssssOpup2uuiuu66322266aaai1666#662:;:#%**32322q+ssssssss",
"sssssssssss+pptpuuiuuuy2223367aaa7663#@#6263%#%**33333+sssssssss",
"ssssssssssOewtpuu<0ywy023123667766yww###666%%#%wwq323+ssssssssss",
"ssssssssssOqwwww<<22y0222---666-63wwww#&:&***%qwqw3q7Ossssssssss",
"sssssssssssOwww,<<<<2<2<--<,<---36wwww#&:*>**%qqwq2qq7osssssssss",
"ssssssssssss+,<333<<<2<2--<,<,---61www6*>*****www$$677osssssssss",
"sssssssssssso33333#@<2<2-%<,*,%776612177*>***@;$&$$$77Xsssssssss",
"ssssssssssssso333@@#@<<&-%,,*$7977763777**33*@@%&@@@o ssssssssss",
"sssssssssssssso@@@@;---%%%%*%%77979@77q4@>323>**@@@ ssssssssssss",
"sssssssssssssso@@@@$&&-%%%%%%%%47q@@7637@@3323**%*@Xssssssssssss",
"ssssssssssssssso@@&O&&%%<<2<%%%%#@@@@76@@@3333***** ssssssssssss",
"ssssssssssssssss.oos.$%<<<<2@@#%%%%@@@@@@  33*%*   sssssssssssss",
"sssssssssssssssssssssoX<<<<@#@@%%*%*****XssX***Xssssssssssssssss",
"ssssssssssssssssssssssX<<<@#.@@%% ****** sss   sssssssssssssssss",
"sssssssssssssssssssssssX#@@ s..X s ***  ssssssssssssssssssssssss",
"ssssssssssssssssssssssss   ssssssss   ssssssssssssssssssssssssss",
"ssssssssssssssssssssssssssssssssssssssssssssssssssssssssssssssss",
"ssssssssssssssssssssssssssssssssssssssssssssssssssssssssssssssss",
"ssssssssssssssssssssssssssssssssssssssssssssssssssssssssssssssss",
"ssssssssssssssssssssssssssssssssssssssssssssssssssssssssssssssss",
"ssssssssssssssssssssssssssssssssssssssssssssssssssssssssssssssss",
"ssssssssssssssssssssssssssssssssssssssssssssssssssssssssssssssss",
"ssssssssssssssssssssssssssssssssssssssssssssssssssssssssssssssss",
"ssssssssssssssssssssssssssssssssssssssssssssssssssssssssssssssss",
"ssssssssssssssssssssssssssssssssssssssssssssssssssssssssssssssss",
"ssssssssssssssssssssssssssssssssssssssssssssssssssssssssssssssss",
"ssssssssssssssssssssssssssssssssssssssssssssssssssssssssssssssss",
"ssssssssssssssssssssssssssssssssssssssssssssssssssssssssssssssss"
};
