/* XPM */
static char *result[] = {
/* columns rows colors chars-per-pixel */
"71 64 2 1 ",
"  c #FFF9F9",
". c None",
/* pixels */
".......................................................................",
".......................................................................",
".......................................................................",
".......................................................................",
".......................................................................",
"................................   ....................................",
"................................    ...................................",
"................................     ..................................",
"................................     ..................................",
"..............................      .  ................................",
"..............................      .. ................................",
"............         .........  ..  ...  ..............................",
".............     .   .......   ..  .....            ..................",
"..............   ..    .....    ..  .....             .................",
"..............  .  ..         ....  ..............  ...................",
".............. ..  ..         ....  ..............  ...................",
".............. ....  .............  ............  ..   ................",
".............. ....  .............  ............  ..    ...............",
".............. ......  ...........  ..........  ......  ...............",
".............  ......  ...........  ..........  ......  ...............",
"............   ........  .....       ........ ........   ..............",
"............   .......   .....       ........ ........   ..............",
"............  .......     ....  ..  .    ..  ........... ..............",
"........      .......  .        ..  .....    ...........   ............",
"........      .......  ..       ..  .....    ...........   ............",
"......    .......      ...  ......  ...  ..   ...........  ............",
"......    .......      ...  ......  ...  ..   ...........  ............",
"......             .........  ....  .  ......              ............",
"......             .........  ....  .  ......              ............",
"......  ...... ....                               ....   ..............",
"......  ...... ....                               ....   ..............",
"......    .... .................    ......... ........  ...............",
".......... ...       .........  .    ........ ........  ...............",
"..........  ..       .........  ..   ........ ........  ...............",
"..........  .......    .....  ....  .    .... ........  ...............",
"..........  .......    .....  ....  .    .... ........  ...............",
"............  .......  ...  ......  .....    .........  ...............",
"............  .......  ...  ......  .....    .........  ...............",
"............  .......  .. ..    ..  .    ..  .........  ...............",
"............  .......  .   .    .   .    ..  .........  ...............",
"............  .......       ..         ......   ......  ...............",
"............  .......       ..         ......   ......  ...............",
"............  .....  .............  ............  ....   ..............",
"............  .... ...............  .....           ...  ..............",
"............  ...  ...............  .....           .... ..............",
"............  .. .................  ...    .....         ..............",
"............  .  .................  ...    .....         ..............",
"............   .......... ........  .    ............... ..............",
"............   .......... ........  .    ............... ..............",
"..........    .          .  ......  .  ..................  ............",
"..........    .         ..  ......  .  ................... ............",
"............   ...........  ......  .  ................................",
"............................  ....   ..................................",
"............................  ....   ..................................",
"..............................  ..   ..................................",
"..............................  ..   ..................................",
"..............................  ..   ..................................",
"..............................  ..   ..................................",
"..............................      ...................................",
"..............................     ....................................",
".......................................................................",
".......................................................................",
".......................................................................",
"......................................................................."
};
